<svg width="100" height="36" viewBox="0 0 100 36" fill="none" xmlns="http://www.w3.org/2000/svg">
<g clip-path="url(#clip0_54_31)">
<path d="M43.8 22.5H36C35.8 22.5 35.6 22.6 35.5 22.8L34.1 26.1C34 26.3 33.8 26.4 33.6 26.4H31.5C31.2 26.4 31 26.2 31 25.9C31 25.8 31 25.8 31 25.7L38.1 9.8C38.2 9.6 38.4 9.5 38.6 9.5H41C41.2 9.5 41.4 9.6 41.5 9.8L48.7 25.7C48.8 26 48.7 26.3 48.4 26.4C48.3 26.4 48.3 26.4 48.2 26.4H46C45.8 26.4 45.6 26.3 45.5 26.1L44.1 22.8C44.2 22.6 44 22.5 43.8 22.5ZM42.8 19.3L40.4 13.7C40.3 13.5 40 13.4 39.7 13.5C39.6 13.6 39.5 13.6 39.4 13.8L37 19.4C36.9 19.7 37 19.9 37.3 20.1C37.4 20.1 37.4 20.1 37.5 20.1H42.3C42.6 20.1 42.8 19.9 42.8 19.6C42.8 19.5 42.8 19.4 42.8 19.3Z" fill="white"/>
<path d="M52.1998 25.8004C51.1998 25.3004 50.2998 24.5004 49.6998 23.4004C48.4998 21.3004 48.4998 18.7004 49.6998 16.6004C50.2998 15.6004 51.1998 14.8004 52.1998 14.3004C53.2998 13.7004 54.5998 13.4004 55.7998 13.5004C56.9998 13.5004 58.0998 13.7004 59.0998 14.3004C59.8998 14.7004 60.4998 15.3004 60.9998 16.1004C61.1998 16.3004 61.0998 16.6004 60.8998 16.8004L59.3998 17.5004C59.1998 17.6004 58.8998 17.6004 58.6998 17.4004C58.3998 17.0004 57.9998 16.6004 57.5998 16.4004C56.9998 16.1004 56.3998 16.0004 55.7998 16.0004C54.7998 16.0004 53.6998 16.4004 52.9998 17.1004C52.1998 17.9004 51.7998 18.9004 51.8998 20.0004C51.7998 21.1004 52.2998 22.2004 52.9998 23.0004C54.1998 24.2004 56.0998 24.5004 57.5998 23.6004C57.9998 23.4004 58.3998 23.0004 58.6998 22.6004C58.8998 22.4004 59.0998 22.3004 59.3998 22.5004L60.8998 23.4004C61.0998 23.5004 61.1998 23.8004 61.0998 24.1004C60.5998 24.8004 59.9998 25.5004 59.1998 25.9004C58.1998 26.4004 56.9998 26.7004 55.8998 26.7004C54.5998 26.6004 53.2998 26.3004 52.1998 25.8004Z" fill="white"/>
<path d="M65.0001 25.8004C64.0001 25.3004 63.1001 24.4004 62.5001 23.4004C61.9001 22.4004 61.6001 21.2004 61.6001 20.0004C61.6001 18.8004 61.9001 17.6004 62.5001 16.6004C63.1001 15.6004 63.9001 14.8004 65.0001 14.3004C66.1001 13.7004 67.3001 13.4004 68.5001 13.5004C69.7001 13.5004 71.0001 13.8004 72.1001 14.3004C73.1001 14.8004 74.0001 15.7004 74.5001 16.6004C75.7001 18.7004 75.7001 21.3004 74.5001 23.4004C73.9001 24.4004 73.1001 25.2004 72.1001 25.8004C71.0001 26.4004 69.8001 26.7004 68.5001 26.7004C67.3001 26.6004 66.1001 26.3004 65.0001 25.8004ZM71.3001 22.9004C72.0001 22.1004 72.4001 21.1004 72.4001 20.0004C72.4001 18.9004 72.1001 17.9004 71.3001 17.1004C69.8001 15.6004 67.3001 15.6004 65.8001 17.1004C65.1001 17.9004 64.7001 18.9004 64.7001 20.0004C64.7001 21.1004 65.0001 22.1004 65.8001 22.9004C67.3001 24.4004 69.7001 24.4004 71.3001 22.9004Z" fill="white"/>
<path d="M84.7998 13.8996V15.6996C84.7998 15.9996 84.5998 16.1996 84.2998 16.1996H84.0998C83.0998 16.0996 82.0998 16.4996 81.2998 17.1996C80.5998 17.9996 80.1998 19.0996 80.2998 20.1996V25.8996C80.2998 26.1996 80.0998 26.3996 79.7998 26.3996H77.7998C77.4998 26.3996 77.2998 26.1996 77.2998 25.8996V14.0996C77.2998 13.7996 77.4998 13.5996 77.7998 13.5996H79.6998C79.9998 13.5996 80.1998 13.7996 80.1998 14.0996V14.1996C80.1998 14.4996 80.3998 14.6996 80.6998 14.6996C80.7998 14.6996 80.8998 14.6996 80.9998 14.5996C81.8998 13.8996 83.0998 13.4996 84.1998 13.4996C84.4998 13.3996 84.7998 13.5996 84.7998 13.8996Z" fill="white"/>
<path d="M97.5999 14.8003C98.6999 15.9003 99.1999 17.5003 99.0999 19.0003V25.9003C99.0999 26.2003 98.8999 26.4003 98.5999 26.4003H96.5999C96.2999 26.4003 96.0999 26.2003 96.0999 25.9003V19.4003C96.1999 18.5003 95.8999 17.6003 95.2999 16.9003C94.6999 16.3003 93.8999 16.0003 92.9999 16.0003C91.9999 15.9003 91.0999 16.3003 90.3999 17.0003C89.6999 17.8003 89.2999 18.8003 89.3999 19.9003V25.9003C89.3999 26.2003 89.1999 26.4003 88.8999 26.4003H86.8999C86.5999 26.4003 86.3999 26.2003 86.3999 25.9003V14.1003C86.3999 13.8003 86.5999 13.6003 86.8999 13.6003H88.7999C89.0999 13.6003 89.2999 13.8003 89.2999 14.1003C89.2999 14.4003 89.4999 14.6003 89.7999 14.6003C89.8999 14.6003 89.9999 14.6003 90.0999 14.5003C90.3999 14.3003 90.7999 14.1003 91.1999 13.9003C91.9999 13.6003 92.8999 13.4003 93.7999 13.4003C95.0999 13.3003 96.4999 13.8003 97.5999 14.8003Z" fill="white"/>
<path d="M23.7001 7.70026C22.0001 6.50026 19.2001 5.10026 14.9001 4.80026V4.50026C14.9001 4.40026 15.0001 4.30026 15.1001 4.30026L15.6001 4.20026C16.5001 4.00026 17.1001 3.00026 16.9001 2.10026C16.7001 1.20026 15.7001 0.600257 14.8001 0.800257L14.3001 0.900257C12.6001 1.30026 11.5001 2.80026 11.5001 4.50026V4.80026C7.00014 5.00026 4.20014 6.40026 2.50014 7.70026C1.10014 8.70026 0.300139 10.6003 0.500139 12.6003L0.700139 14.4003C0.800139 15.7003 1.40014 16.9003 2.40014 17.9003L3.00014 24.3003C3.20014 26.9003 4.60014 29.2003 6.80014 30.7003L8.70014 32.0003C10.0001 32.9003 11.6001 33.4003 13.1001 33.4003C14.6001 33.4003 16.2001 32.9003 17.5001 32.0003L19.4001 30.7003C21.6001 29.2003 22.9001 26.9003 23.2001 24.3003L23.8001 17.9003C24.8001 16.9003 25.3001 15.7003 25.5001 14.4003L25.7001 12.6003C25.8001 10.5003 25.1001 8.70026 23.7001 7.70026ZM4.60014 10.5003C6.10014 9.40026 8.70014 8.20026 13.1001 8.20026C17.5001 8.20026 20.1001 9.50026 21.6001 10.5003C22.2001 10.9003 22.2001 11.8003 22.1001 12.2003L21.9001 14.0003C21.8001 14.7003 21.5001 15.3003 20.9001 15.7003C20.2001 16.2003 19.3001 16.4003 18.4001 16.2003C16.5001 15.8003 14.7001 15.6003 13.1001 15.6003C11.5001 15.6003 9.70014 15.8003 7.80014 16.2003C6.90014 16.4003 6.00014 16.2003 5.30014 15.7003C4.70014 15.3003 4.30014 14.7003 4.30014 14.0003L4.10014 12.2003C4.00014 11.8003 4.00014 10.9003 4.60014 10.5003ZM17.4001 27.8003L15.5001 29.1003C14.1001 30.1003 12.1001 30.1003 10.7001 29.1003L8.80014 27.8003C7.50014 26.9003 6.70014 25.5003 6.50014 23.9003L6.10014 19.6003C6.40014 19.7003 6.80014 19.7003 7.10014 19.7003C7.50014 19.7003 8.00014 19.7003 8.40014 19.6003C10.1001 19.3003 11.6001 19.1003 13.0001 19.1003C14.4001 19.1003 15.9001 19.3003 17.6001 19.6003C18.4001 19.8003 19.2001 19.8003 19.9001 19.7003L19.5001 24.0003C19.5001 25.5003 18.7001 26.9003 17.4001 27.8003Z" fill="white"/>
</g>
<defs>
<clipPath id="clip0_54_31">
<rect width="100" height="35" fill="white" transform="translate(0 0.5)"/>
</clipPath>
</defs>
</svg>
